<?xml version="1.0" encoding="UTF-8"?>
<svg width="404px" height="407px" viewBox="0 0 404 407" version="1.1" xmlns="http://www.w3.org/2000/svg" xmlns:xlink="http://www.w3.org/1999/xlink">
    <title>Group</title>
    <g id="Page-1" stroke="none" stroke-width="1" fill="none" fill-rule="evenodd">
        <g id="Group" transform="translate(0.0045, 0.9724)" fill-rule="nonzero">
            <path d="M2.29545455,63.037619 C6.99545455,32.827619 30.2554545,9.20761905 59.5154545,3.01761905 C72.0354545,0.367619048 84.8154545,0.0676190476 99.8054545,0.0576190476 C202.018788,-0.0157142857 272.332121,-0.019047619 310.745455,0.0476190476 C344.105455,0.117619048 374.225455,7.35761905 391.905455,38.177619 C402.625455,56.877619 402.955455,78.847619 402.965455,99.827619 C403.025455,201.447619 403.032121,272.014286 402.985455,311.527619 C402.965455,324.067619 402.265455,338.877619 398.535455,351.377619 C392.205455,372.567619 377.525455,389.277619 357.165455,397.947619 C343.905455,403.587619 327.885455,405.147619 313.185455,405.167619 C240.038788,405.274286 166.892121,405.284286 93.7454545,405.197619 C74.0254545,405.167619 53.8154545,403.617619 37.7754545,394.007619 C7.80545455,376.047619 0.0954545455,347.607619 0.0654545455,314.467619 C-0.0145454545,240.907619 -0.0212121212,167.344286 0.0454545455,93.777619 C0.0521212121,82.8509524 0.802121212,72.6042857 2.29545455,63.037619 Z" id="Path" fill="#FFFFFF"></path>
            <path d="M2.29545455,63.037619 C6.99545455,32.827619 30.2554545,9.20761905 59.5154545,3.01761905 C72.0354545,0.367619048 84.8154545,0.0676190476 99.8054545,0.0576190476 C202.018788,-0.0157142857 272.332121,-0.019047619 310.745455,0.0476190476 C344.105455,0.117619048 374.225455,7.35761905 391.905455,38.177619 C402.625455,56.877619 402.955455,78.847619 402.965455,99.827619 C403.025455,201.447619 403.032121,272.014286 402.985455,311.527619 C402.965455,324.067619 402.265455,338.877619 398.535455,351.377619 C392.205455,372.567619 377.525455,389.277619 357.165455,397.947619 C343.905455,403.587619 327.885455,405.147619 313.185455,405.167619 C240.038788,405.274286 166.892121,405.284286 93.7454545,405.197619 C74.0254545,405.167619 53.8154545,403.617619 37.7754545,394.007619 C7.80545455,376.047619 0.0954545455,347.607619 0.0654545455,314.467619 C-0.0145454545,240.907619 -0.0212121212,167.344286 0.0454545455,93.777619 C0.0521212121,82.8509524 0.802121212,72.6042857 2.29545455,63.037619 Z M208.135455,185.067619 C215.248788,162.220952 222.415455,139.390952 229.635455,116.577619 C232.955455,106.077619 236.825455,97.037619 246.265455,91.057619 C252.592121,87.0509524 258.995455,86.1342857 265.475455,88.307619 C272.035455,90.507619 273.135455,94.387619 276.595455,99.057619 C276.808788,99.3509524 277.088788,99.5509524 277.435455,99.657619 L290.215455,103.587619 C292.311573,104.226927 294.528813,103.055723 295.175455,100.967619 L305.855455,66.487619 C306.148634,65.5381455 306.051904,64.5110304 305.586616,63.6329865 C305.121328,62.7549426 304.325738,62.0981637 303.375455,61.807619 L290.085455,57.737619 C289.745455,57.6309524 289.422121,57.6642857 289.115455,57.837619 C275.265455,65.527619 267.715455,58.557619 259.245455,48.217619 C258.265455,47.017619 257.105455,46.1242857 255.765455,45.537619 C229.658788,34.0642857 202.315455,29.817619 173.735455,32.797619 C162.825455,33.927619 149.315455,37.067619 140.685455,43.357619 C139.075455,44.537619 138.755455,46.087619 138.355455,47.927619 C138.268788,48.3342857 138.428788,48.497619 138.835455,48.417619 C155.525455,45.147619 180.765455,43.217619 193.165455,56.317619 C204.605455,68.387619 207.585455,85.257619 206.205455,101.437619 C205.872121,105.304286 204.812121,110.104286 203.025455,115.837619 C196.658788,136.290952 190.312121,156.760952 183.985455,177.247619 C183.885455,177.580952 183.692121,177.844286 183.405455,178.037619 C179.795455,180.507619 179.575455,183.087619 178.225455,186.927619 C159.872121,238.874286 141.538788,290.834286 123.225455,342.807619 C120.145455,351.537619 119.775455,358.847619 127.585455,364.527619 C130.685455,366.777619 135.025455,367.687619 138.875455,368.917619 C147.095455,371.557619 154.975455,372.467619 160.535455,365.057619 C162.068788,363.017619 163.645455,358.987619 165.265455,352.967619 C179.812121,298.907619 194.368788,244.840952 208.935455,190.767619 C209.455455,188.837619 209.145455,187.637619 208.235455,185.987619 C208.076411,185.706822 208.040218,185.373848 208.135455,185.067619 Z" id="Shape" fill="#0A84FF"></path>
        </g>
    </g>
</svg>